<svg width="40" height="40" viewBox="0 0 40 40" fill="none" xmlns="http://www.w3.org/2000/svg">
<path d="M2.00226 32.9616V7.03842H16.2096L19.5207 12.15H38.0023V19H36V18H30V19H28V20H27V22H26V27H24V28H22V29H21V31H20V32.9616H2.00226Z" fill="#AFB1B3"/>
<path d="M32 20H34V30H32V20Z" fill="#389FD6"/>
<path d="M28.1699 23.366L29.1699 21.634L37.8301 26.634L36.8301 28.366L28.1699 23.366Z" fill="#389FD6"/>
<path d="M29.1699 28.366L28.1699 26.634L36.8301 21.634L37.8301 23.366L29.1699 28.366Z" fill="#389FD6"/>
<path d="M29 33C29 34.6569 27.6569 36 26 36C24.3431 36 23 34.6569 23 33C23 31.3431 24.3431 30 26 30C27.6569 30 29 31.3431 29 33Z" fill="#389FD6"/>
</svg>
