<svg width="16" height="16" viewBox="0 0 16 16" fill="none" xmlns="http://www.w3.org/2000/svg">
<path d="M0.800903 13.1846V2.81537H6.48385L7.80826 4.86001H15.2009V7.6H14.4V7.2H12V7.6H11.2V8H10.8V8.8H10.4V10.8H9.6V11.2H8.8V11.6H8.4V12.4H8V13.1846H0.800903Z" fill="#6E6E6E"/>
<path d="M12.8 8H13.6V12H12.8V8Z" fill="#389FD6"/>
<path d="M11.2679 9.34641L11.6679 8.65359L15.132 10.6536L14.732 11.3464L11.2679 9.34641Z" fill="#389FD6"/>
<path d="M11.6679 11.3464L11.2679 10.6536L14.732 8.65359L15.132 9.34641L11.6679 11.3464Z" fill="#389FD6"/>
<path d="M11.6 13.2C11.6 13.8627 11.0627 14.4 10.4 14.4C9.73726 14.4 9.2 13.8627 9.2 13.2C9.2 12.5373 9.73726 12 10.4 12C11.0627 12 11.6 12.5373 11.6 13.2Z" fill="#389FD6"/>
</svg>
